<svg width="21" height="21" viewBox="0 0 21 21" fill="none" xmlns="http://www.w3.org/2000/svg">
<path d="M10.9375 9.84375V17.7188C10.9375 17.8928 10.8684 18.0597 10.7453 18.1828C10.6222 18.3059 10.4553 18.375 10.2812 18.375C10.1072 18.375 9.94028 18.3059 9.81721 18.1828C9.69414 18.0597 9.625 17.8928 9.625 17.7188V9.84375C9.625 9.6697 9.69414 9.50278 9.81721 9.37971C9.94028 9.25664 10.1072 9.1875 10.2812 9.1875C10.4553 9.1875 10.6222 9.25664 10.7453 9.37971C10.8684 9.50278 10.9375 9.6697 10.9375 9.84375ZM16.1875 15.75C16.0135 15.75 15.8465 15.8191 15.7235 15.9422C15.6004 16.0653 15.5312 16.2322 15.5312 16.4062V17.7188C15.5312 17.8928 15.6004 18.0597 15.7235 18.1828C15.8465 18.3059 16.0135 18.375 16.1875 18.375C16.3615 18.375 16.5285 18.3059 16.6515 18.1828C16.7746 18.0597 16.8438 17.8928 16.8438 17.7188V16.4062C16.8438 16.2322 16.7746 16.0653 16.6515 15.9422C16.5285 15.8191 16.3615 15.75 16.1875 15.75ZM18.1562 13.125H16.8438V3.28125C16.8438 3.1072 16.7746 2.94028 16.6515 2.81721C16.5285 2.69414 16.3615 2.625 16.1875 2.625C16.0135 2.625 15.8465 2.69414 15.7235 2.81721C15.6004 2.94028 15.5312 3.1072 15.5312 3.28125V13.125H14.2188C14.0447 13.125 13.8778 13.1941 13.7547 13.3172C13.6316 13.4403 13.5625 13.6072 13.5625 13.7812C13.5625 13.9553 13.6316 14.1222 13.7547 14.2453C13.8778 14.3684 14.0447 14.4375 14.2188 14.4375H18.1562C18.3303 14.4375 18.4972 14.3684 18.6203 14.2453C18.7434 14.1222 18.8125 13.9553 18.8125 13.7812C18.8125 13.6072 18.7434 13.4403 18.6203 13.3172C18.4972 13.1941 18.3303 13.125 18.1562 13.125ZM4.375 13.125C4.20095 13.125 4.03403 13.1941 3.91096 13.3172C3.78789 13.4403 3.71875 13.6072 3.71875 13.7812V17.7188C3.71875 17.8928 3.78789 18.0597 3.91096 18.1828C4.03403 18.3059 4.20095 18.375 4.375 18.375C4.54905 18.375 4.71597 18.3059 4.83904 18.1828C4.96211 18.0597 5.03125 17.8928 5.03125 17.7188V13.7812C5.03125 13.6072 4.96211 13.4403 4.83904 13.3172C4.71597 13.1941 4.54905 13.125 4.375 13.125ZM6.34375 10.5H5.03125V3.28125C5.03125 3.1072 4.96211 2.94028 4.83904 2.81721C4.71597 2.69414 4.54905 2.625 4.375 2.625C4.20095 2.625 4.03403 2.69414 3.91096 2.81721C3.78789 2.94028 3.71875 3.1072 3.71875 3.28125V10.5H2.40625C2.2322 10.5 2.06528 10.5691 1.94221 10.6922C1.81914 10.8153 1.75 10.9822 1.75 11.1562C1.75 11.3303 1.81914 11.4972 1.94221 11.6203C2.06528 11.7434 2.2322 11.8125 2.40625 11.8125H6.34375C6.5178 11.8125 6.68472 11.7434 6.80779 11.6203C6.93086 11.4972 7 11.3303 7 11.1562C7 10.9822 6.93086 10.8153 6.80779 10.6922C6.68472 10.5691 6.5178 10.5 6.34375 10.5ZM12.25 6.5625H10.9375V3.28125C10.9375 3.1072 10.8684 2.94028 10.7453 2.81721C10.6222 2.69414 10.4553 2.625 10.2812 2.625C10.1072 2.625 9.94028 2.69414 9.81721 2.81721C9.69414 2.94028 9.625 3.1072 9.625 3.28125V6.5625H8.3125C8.13845 6.5625 7.97153 6.63164 7.84846 6.75471C7.72539 6.87778 7.65625 7.0447 7.65625 7.21875C7.65625 7.3928 7.72539 7.55972 7.84846 7.68279C7.97153 7.80586 8.13845 7.875 8.3125 7.875H12.25C12.424 7.875 12.591 7.80586 12.714 7.68279C12.8371 7.55972 12.9062 7.3928 12.9062 7.21875C12.9062 7.0447 12.8371 6.87778 12.714 6.75471C12.591 6.63164 12.424 6.5625 12.25 6.5625Z" fill="#292929"/>
</svg>
