<svg width="21" height="21" viewBox="0 0 21 21" fill="none" xmlns="http://www.w3.org/2000/svg">
<path d="M18.3755 10.0629C18.3755 10.2369 18.3064 10.4038 18.1833 10.5269C18.0602 10.65 17.8933 10.7191 17.7193 10.7191H9.18802C9.01397 10.7191 8.84705 10.65 8.72398 10.5269C8.60091 10.4038 8.53177 10.2369 8.53177 10.0629C8.53177 9.88882 8.60091 9.7219 8.72398 9.59883C8.84705 9.47576 9.01397 9.40662 9.18802 9.40662H17.7193C17.8933 9.40662 18.0602 9.47576 18.1833 9.59883C18.3064 9.7219 18.3755 9.88882 18.3755 10.0629ZM9.18802 5.46912H17.7193C17.8933 5.46912 18.0602 5.39997 18.1833 5.2769C18.3064 5.15383 18.3755 4.98691 18.3755 4.81287C18.3755 4.63882 18.3064 4.4719 18.1833 4.34883C18.0602 4.22576 17.8933 4.15661 17.7193 4.15661H9.18802C9.01397 4.15661 8.84705 4.22576 8.72398 4.34883C8.60091 4.4719 8.53177 4.63882 8.53177 4.81287C8.53177 4.98691 8.60091 5.15383 8.72398 5.2769C8.84705 5.39997 9.01397 5.46912 9.18802 5.46912ZM17.7193 14.6566H3.28177C3.10772 14.6566 2.9408 14.7258 2.81773 14.8488C2.69466 14.9719 2.62552 15.1388 2.62552 15.3129C2.62552 15.4869 2.69466 15.6538 2.81773 15.7769C2.9408 15.9 3.10772 15.9691 3.28177 15.9691H17.7193C17.8933 15.9691 18.0602 15.9 18.1833 15.7769C18.3064 15.6538 18.3755 15.4869 18.3755 15.3129C18.3755 15.1388 18.3064 14.9719 18.1833 14.8488C18.0602 14.7258 17.8933 14.6566 17.7193 14.6566ZM2.81747 11.1834C2.87842 11.2444 2.95079 11.2928 3.03046 11.3259C3.11013 11.3589 3.19552 11.3759 3.28177 11.3759C3.36801 11.3759 3.4534 11.3589 3.53307 11.3259C3.61274 11.2928 3.68512 11.2444 3.74606 11.1834L7.02731 7.90216C7.08833 7.84121 7.13673 7.76884 7.16976 7.68917C7.20278 7.6095 7.21978 7.52411 7.21978 7.43787C7.21978 7.35162 7.20278 7.26623 7.16976 7.18656C7.13673 7.10689 7.08833 7.03452 7.02731 6.97357L3.74606 3.69232C3.62292 3.56918 3.45591 3.5 3.28177 3.5C3.10762 3.5 2.94061 3.56918 2.81747 3.69232C2.69433 3.81546 2.62515 3.98247 2.62515 4.15661C2.62515 4.33076 2.69433 4.49777 2.81747 4.62091L5.63524 7.43787L2.81747 10.2548C2.75645 10.3158 2.70805 10.3881 2.67502 10.4678C2.642 10.5475 2.625 10.6329 2.625 10.7191C2.625 10.8054 2.642 10.8908 2.67502 10.9704C2.70805 11.0501 2.75645 11.1225 2.81747 11.1834Z" fill="#292929"/>
</svg>
